<svg width="9" height="9" viewBox="0 0 9 9" fill="none" xmlns="http://www.w3.org/2000/svg">
<path d="M8.85614 4.15034L5.60592 0.900054C5.51314 0.807274 5.38949 0.756348 5.25763 0.756348C5.12563 0.756348 5.00205 0.807347 4.90927 0.900054L4.61418 1.19522C4.52147 1.28786 4.4704 1.41159 4.4704 1.54351C4.4704 1.67536 4.52147 1.80327 4.61418 1.8959L6.5103 3.7962H0.486215C0.214608 3.7962 0 4.00883 0 4.28051V4.6978C0 4.96948 0.214608 5.20356 0.486215 5.20356H6.53182L4.61425 7.11447C4.52154 7.20725 4.47047 7.32761 4.47047 7.45954C4.47047 7.59132 4.52154 7.71344 4.61425 7.80614L4.90934 8.10036C5.00212 8.19314 5.12571 8.2437 5.25771 8.2437C5.38956 8.2437 5.51322 8.19248 5.606 8.0997L8.85621 4.84948C8.94921 4.75641 9.00035 4.63217 8.99999 4.5001C9.00028 4.36759 8.94921 4.24327 8.85614 4.15034Z" fill="#FF1A43"/>
</svg>
